<svg aria-hidden="true" style="position:absolute;width:0;height:0;overflow:hidden" xmlns="http://www.w3.org/2000/svg">
  <defs>
    <symbol id="icon-petrol" viewBox="0 0 32 32">
      <path d="M6 5a.997.997 0 0 1 1-1h10a.997.997 0 0 1 1 1v10a.997.997 0 0 1-1 1H7a.997.997 0 0 1-1-1V5z" />
      <path
        d="M2 4a4.003 4.003 0 0 1 4-4h12a4.003 4.003 0 0 1 4 4v16a4.003 4.003 0 0 1 4 4v1a.997.997 0 0 0 1 1 .997.997 0 0 0 1-1v-9h-1a.997.997 0 0 1-1-1V8.75a.997.997 0 0 1 1-1h2.99c-.022-.952-.106-1.788-.402-2.444a1.944 1.944 0 0 0-.788-.916C28.432 4.17 27.872 4 27 4a.997.997 0 0 1-1-1 .997.997 0 0 1 1-1c1.128-.003 2.069.221 2.824.672.766.456 1.268 1.102 1.588 1.814.59 1.31.588 2.93.588 4.162v6.35c0 .132-.025.262-.076.383s-.124.232-.217.325a.991.991 0 0 1-.708.293h-1v9a3.004 3.004 0 0 1-3 3 2.998 2.998 0 0 1-3-3v-1a2 2 0 0 0-2-2v8h1a.997.997 0 0 1 1 1 .997.997 0 0 1-1 1h-22a.997.997 0 0 1-1-1 .997.997 0 0 1 1-1h1v-26zm18 0a2 2 0 0 0-2-2H6a2 2 0 0 0-2 2v26h16V4z" />
    </symbol>
    <symbol id="icon-radio" viewBox="0 0 34 32">
      <path
        d="M15.556 3.778a1.114 1.114 0 0 1 1.111-1.111h15.556a1.114 1.114 0 0 1 1.111 1.111V6a1.114 1.114 0 0 1-1.111 1.111H16.667A1.114 1.114 0 0 1 15.556 6V3.778zM0 24.889a6.67 6.67 0 0 1 11.381-4.714A6.668 6.668 0 1 1 0 24.889zm15.556-3.333a1.114 1.114 0 0 1 1.111-1.112h15.556a1.11 1.11 0 0 1 1.111 1.112v2.222a1.114 1.114 0 0 1-1.111 1.112H16.667a1.11 1.11 0 0 1-1.111-1.112v-2.222zm0-11.112a1.114 1.114 0 0 1 1.111-1.111h11.111a1.114 1.114 0 0 1 1.112 1.111 1.11 1.11 0 0 1-1.112 1.111H16.667a1.114 1.114 0 0 1-1.111-1.111zm0 17.778a1.114 1.114 0 0 1 1.111-1.112h11.111a1.11 1.11 0 0 1 .786 1.898 1.109 1.109 0 0 1-.786.326H16.667a1.11 1.11 0 0 1-1.111-1.112zM6.667.444A6.668 6.668 0 0 0 .508 4.559a6.668 6.668 0 0 0 6.159 9.217 6.67 6.67 0 0 0 4.714-11.381A6.67 6.67 0 0 0 6.667.442zm0 10a3.333 3.333 0 1 1 0-6.667 3.333 3.333 0 0 1 0 6.667z" />
    </symbol>
    <symbol id="icon-star" viewBox="0 0 32 32">
      <path
        d="M15.116 1.676a1 1 0 0 1 1.769 0l3.777 7.158c.145.274.408.466.714.519l7.975 1.38a1 1 0 0 1 .547 1.682l-5.641 5.804a1 1 0 0 0-.273.839l1.152 8.01a1 1 0 0 1-1.431 1.04l-7.263-3.571a.998.998 0 0 0-.882 0l-7.262 3.571a1 1 0 0 1-1.431-1.04l1.152-8.01a1 1 0 0 0-.273-.839l-5.64-5.804a1 1 0 0 1 .547-1.682l7.974-1.38a.998.998 0 0 0 .714-.519l3.776-7.158z" />
    </symbol>
    <symbol id="icon-heart" viewBox="0 0 37 32">
      <path
        d="m18.286 11.968-2.043-4.089c-.507-1.013-1.387-2.469-2.633-3.646-1.225-1.159-2.693-1.947-4.466-1.947-3.831 0-6.857 3.031-6.857 6.674 0 2.768 1.266 4.722 4.27 7.703.77.763 1.648 1.589 2.619 2.498 2.533 2.377 5.682 5.335 9.111 9.289 3.429-3.954 6.578-6.912 9.111-9.289.971-.91 1.851-1.737 2.619-2.498 3.003-2.981 4.27-4.935 4.27-7.703 0-3.643-3.026-6.674-6.857-6.674-1.776 0-3.241.789-4.466 1.947-1.246 1.177-2.126 2.633-2.633 3.646l-2.043 4.089zm.896 18.953a1.176 1.176 0 0 1-1.39.307 1.176 1.176 0 0 1-.402-.307c-3.659-4.347-6.971-7.456-9.698-10.014C2.972 16.475.001 13.689.001 8.96.001 4.011 4.092 0 9.144 0c3.657 0 6.215 2.4 7.781 4.59a17.27 17.27 0 0 1 1.362 2.267 17.41 17.41 0 0 1 1.362-2.267C21.215 2.398 23.772 0 27.43 0c5.051 0 9.143 4.011 9.143 8.96 0 4.729-2.971 7.515-7.691 11.947-2.727 2.56-6.039 5.671-9.698 10.014z" />
    </symbol>
    <symbol id="icon-water" viewBox="0 0 32 32">
      <path stroke-linejoin="miter" stroke-linecap="butt" stroke-miterlimit="10" stroke-width="2"
        d="M25 20c0 5.523-3.477 9-9 9s-9-3.477-9-9c0-5.927 6.452-13.928 8.431-16.242 0.070-0.082 0.158-0.148 0.256-0.194s0.205-0.069 0.314-0.069c0.108 0 0.215 0.023 0.314 0.069s0.186 0.111 0.256 0.194c1.978 2.314 8.43 10.316 8.43 16.242z">
      </path>
      <path stroke-linejoin="round" stroke-linecap="round" stroke-miterlimit="4" stroke-width="2"
        d="M21.5 20.5c0 1.193-0.474 2.338-1.318 3.182s-1.988 1.318-3.182 1.318"></path>
    </symbol>
    <symbol id="icon-gas" viewBox="0 0 32 32">
      <path stroke-linejoin="round" stroke-linecap="round" stroke-miterlimit="4" stroke-width="2.4"
        d="M8 25.333h5.333M24 25.345v-0.012M2.667 8c0-4.413 0.92-5.333 5.333-5.333h16c4.413 0 5.333 0.92 5.333 5.333v16c0 4.413-0.92 5.333-5.333 5.333h-16c-4.413 0-5.333-0.92-5.333-5.333v-16z">
      </path>
      <path stroke-linejoin="round" stroke-linecap="round" stroke-miterlimit="4" stroke-width="2.4"
        d="M16 18.667c2.945 0 5.333-2.388 5.333-5.333s-2.388-5.333-5.333-5.333c-2.946 0-5.333 2.388-5.333 5.333s2.388 5.333 5.333 5.333z">
      </path>
      <path stroke-linejoin="round" stroke-linecap="round" stroke-miterlimit="4" stroke-width="2.4"
        d="M20.667 13.333h2M16 18v2M11.333 13.333h-2M16 8.667v-2"></path>
    </symbol>
    <symbol id="icon-microwave" viewBox="0 0 34 32">
      <path stroke-linejoin="round" stroke-linecap="round" stroke-miterlimit="4" stroke-width="2.3529"
        d="M29.49 2.51h-25.098c-1.733 0-3.137 1.405-3.137 3.137v17.255c0 1.733 1.405 3.137 3.137 3.137h25.098c1.733 0 3.137-1.405 3.137-3.137v-17.255c0-1.733-1.405-3.137-3.137-3.137z">
      </path>
      <path stroke-linejoin="round" stroke-linecap="round" stroke-miterlimit="4" stroke-width="2.3529"
        d="M18.51 8.784h-9.412c-0.866 0-1.569 0.702-1.569 1.569v7.843c0 0.866 0.702 1.569 1.569 1.569h9.412c0.866 0 1.569-0.702 1.569-1.569v-7.843c0-0.866-0.702-1.569-1.569-1.569z">
      </path>
      <path stroke-linejoin="round" stroke-linecap="round" stroke-miterlimit="4" stroke-width="2.3529"
        d="M26.353 8.784v10.98M7.529 26.039v3.137M26.353 26.039v3.137"></path>
    </symbol>
    <symbol id="icon-refrigerator" viewBox="0 0 32 32">
      <path
        d="M23.667 9.333a.997.997 0 0 0-1-1 .997.997 0 0 0-1 1V12a.997.997 0 0 0 1 1 .997.997 0 0 0 1-1V9.333zm0 9.334a.997.997 0 0 0-1-1 .997.997 0 0 0-1 1v2.667a.997.997 0 0 0 1 1 .997.997 0 0 0 1-1v-2.667z" />
      <path
        d="M16.075 1.667h-.149c-2.451 0-4.392 0-5.911.204-1.563.211-2.828.653-3.827 1.651-.997.999-1.44 2.264-1.651 3.827-.204 1.52-.204 3.46-.204 5.911v4.149c0 2.451 0 4.392.204 5.911.211 1.563.653 2.828 1.651 3.827.613.612 1.325 1.015 2.145 1.284v.904a1 1 0 0 0 1 1h1.333a.997.997 0 0 0 1-1v-.395c1.209.061 2.62.061 4.259.061h.149c1.64 0 3.049 0 4.259-.061v.395a1 1 0 0 0 1 1h1.333a.997.997 0 0 0 1-1v-.904c.82-.269 1.533-.672 2.145-1.284.997-.999 1.44-2.264 1.651-3.827.204-1.52.204-3.46.204-5.911v-4.148c0-2.451 0-4.392-.204-5.911-.211-1.563-.653-2.828-1.651-3.827-.999-.997-2.264-1.44-3.827-1.651-1.52-.204-3.46-.204-5.911-.204zM7.603 4.936c.564-.564 1.337-.903 2.679-1.083 1.371-.184 3.176-.187 5.719-.187s4.349.003 5.72.187c1.34.18 2.113.519 2.677 1.083s.903 1.337 1.083 2.679c.184 1.371.187 3.176.187 5.719v1H6.335v-1c0-2.543.003-4.348.187-5.72.18-1.34.519-2.113 1.083-2.677zm-1.27 11.397h19.333v1c0 2.543-.003 4.349-.187 5.72-.18 1.34-.519 2.113-1.083 2.677s-1.337.903-2.679 1.083c-1.371.184-3.176.187-5.719.187s-4.348-.003-5.72-.187c-1.34-.18-2.113-.519-2.677-1.083s-.903-1.337-1.083-2.679c-.184-1.369-.187-3.176-.187-5.719v-1z" />
    </symbol>
    <symbol id="icon-map" viewBox="0 0 32 32">
      <path
        d="M31.634.226A.991.991 0 0 1 32 1v28a.999.999 0 0 1-.804.98l-10 2a.995.995 0 0 1-.392 0L11 30.02l-9.804 1.96a.995.995 0 0 1-1.1-.552A1.003 1.003 0 0 1 0 31V3a.999.999 0 0 1 .804-.98l10-2a.995.995 0 0 1 .392 0L21 1.98 30.804.02a.996.996 0 0 1 .83.206zM20 3.82l-8-1.6v25.96l8 1.6V3.82zm2 25.96 8-1.6V2.22l-8 1.6v25.96zm-12-1.6V2.22l-8 1.6v25.96l8-1.6z" />
    </symbol>
    <symbol id="icon-alcove" viewBox="0 0 32 32">
      <path
        d="M6.857 2.286v4.571H2.286V2.286h4.571zm2.286 27.428v-4.571a2.287 2.287 0 0 0-2.285-2.285H2.287a2.287 2.287 0 0 0-2.285 2.285v4.571a2.287 2.287 0 0 0 2.285 2.285h4.571a2.287 2.287 0 0 0 2.285-2.285zm0-11.428v-4.571a2.287 2.287 0 0 0-2.285-2.285H2.287a2.287 2.287 0 0 0-2.285 2.285v4.571a2.287 2.287 0 0 0 2.285 2.285h4.571a2.287 2.287 0 0 0 2.285-2.285zm0-11.429V2.286A2.287 2.287 0 0 0 6.858.001H2.287A2.287 2.287 0 0 0 .002 2.286v4.571a2.287 2.287 0 0 0 2.285 2.285h4.571a2.287 2.287 0 0 0 2.285-2.285zm11.428 22.857v-4.571a2.287 2.287 0 0 0-2.285-2.285h-4.571a2.287 2.287 0 0 0-2.285 2.285v4.571a2.287 2.287 0 0 0 2.285 2.285h4.571a2.287 2.287 0 0 0 2.285-2.285zm0-11.428v-4.571a2.287 2.287 0 0 0-2.285-2.285h-4.571a2.287 2.287 0 0 0-2.285 2.285v4.571a2.287 2.287 0 0 0 2.285 2.285h4.571a2.287 2.287 0 0 0 2.285-2.285zm0-11.429V2.286A2.287 2.287 0 0 0 18.286.001h-4.571a2.287 2.287 0 0 0-2.285 2.285v4.571a2.287 2.287 0 0 0 2.285 2.285h4.571a2.287 2.287 0 0 0 2.285-2.285zm-2.285-4.571v4.571h-4.571V2.286h4.571zm11.428 0v4.571h-4.571V2.286h4.571zM6.857 13.714v4.571H2.286v-4.571h4.571zm11.429 0v4.571h-4.571v-4.571h4.571zm11.428 0h-4.571v4.571h4.571v-4.571zM6.857 25.143v4.571H2.286v-4.571h4.571zm11.429 0v4.571h-4.571v-4.571h4.571zm11.428 0v4.571h-4.571v-4.571h4.571zM25.143 0a2.287 2.287 0 0 0-2.285 2.285v4.571a2.287 2.287 0 0 0 2.285 2.285h4.571a2.287 2.287 0 0 0 2.285-2.285V2.285A2.287 2.287 0 0 0 29.714 0h-4.571zm-2.286 13.714a2.287 2.287 0 0 1 2.285-2.285h4.571a2.287 2.287 0 0 1 2.285 2.285v4.571a2.287 2.287 0 0 1-2.285 2.285h-4.571a2.287 2.287 0 0 1-2.285-2.285v-4.571zm2.286 9.143a2.287 2.287 0 0 0-2.285 2.285v4.571a2.287 2.287 0 0 0 2.285 2.285h4.571a2.287 2.287 0 0 0 2.285-2.285v-4.571a2.287 2.287 0 0 0-2.285-2.285h-4.571z" />
    </symbol>
    <symbol id="icon-van" viewBox="0 0 32 32">
      <path
        d="M12 2H2v28h10V2zm18 0H20v10h10V2zm0 18v10H20V20h10zM0 2a2 2 0 0 1 2-2h10a2 2 0 0 1 2 2v28a2 2 0 0 1-2 2H2a2 2 0 0 1-2-2V2zm18 0a2 2 0 0 1 2-2h10a2 2 0 0 1 2 2v10a2 2 0 0 1-2 2H20a2 2 0 0 1-2-2V2zm2 16a2 2 0 0 0-2 2v10a2 2 0 0 0 2 2h10a2 2 0 0 0 2-2V20a2 2 0 0 0-2-2H20z" />
    </symbol>
    <symbol id="icon-bathroom" viewBox="0 0 37 32">
      <path
        d="M8.296 30.222a1.775 1.775 0 0 1-1.098 1.643 1.77 1.77 0 0 1-1.937-.386 1.778 1.778 0 1 1 3.035-1.257zm2.963-6.518a1.775 1.775 0 0 0-1.643 1.098 1.77 1.77 0 0 0 .386 1.937 1.779 1.779 0 1 0 2.514-2.514 1.781 1.781 0 0 0-1.257-.521zm-9.481 0a1.775 1.775 0 0 0-1.643 1.098 1.77 1.77 0 0 0 .386 1.937 1.779 1.779 0 1 0 2.514-2.514 1.781 1.781 0 0 0-1.257-.521zm4.741-4.741a1.775 1.775 0 0 0-1.643 1.098 1.77 1.77 0 0 0 .386 1.937 1.779 1.779 0 1 0 2.514-2.514 1.781 1.781 0 0 0-1.257-.521zM36.741 1.185a1.186 1.186 0 0 1-1.185 1.185h-4.25L27.18 6.497l-3.209 18.784a2.37 2.37 0 0 1-4.013 1.283L5.439 12.045a2.376 2.376 0 0 1-.581-2.4A2.37 2.37 0 0 1 6.727 8.03l18.776-3.21L29.977.346a1.193 1.193 0 0 1 .839-.347h4.741a1.186 1.186 0 0 1 1.185 1.185zM24.624 7.376 7.111 10.37 21.63 24.889l2.994-17.513z" />
    </symbol>
    <symbol id="icon-TV" viewBox="0 0 41 32">
      <path
        d="M0 5.12S0 0 5.12 0h30.72s5.12 0 5.12 5.12v15.36s0 5.12-5.12 5.12H25.6c0 1.707.213 2.987.64 3.84h1.92a1.28 1.28 0 0 1 0 2.56H12.8a1.28 1.28 0 0 1 0-2.56h1.92c.427-.853.64-2.133.64-3.84H5.12S0 25.6 0 20.48V5.12zm3.579-2.189a1.95 1.95 0 0 0-.65.773 3.838 3.838 0 0 0-.369 1.441v15.334c0 .832.2 1.285.371 1.541.179.266.437.483.773.65.432.207.899.331 1.377.366l.064.003h30.694c.832 0 1.285-.2 1.541-.371a1.95 1.95 0 0 0 .65-.773c.207-.432.331-.899.366-1.377l.003-.064V5.12c0-.832-.2-1.285-.371-1.541a1.95 1.95 0 0 0-.773-.65 3.838 3.838 0 0 0-1.441-.369H5.12c-.832 0-1.285.2-1.541.371z" />
    </symbol>
    <symbol id="icon-kitchen" viewBox="0 0 33 32">
      <path
        d="M1.5 12a1.007 1.007 0 0 0-.779.374.997.997 0 0 0-.197.842l3.304 14.868A4.998 4.998 0 0 0 8.708 32h11.584a4.996 4.996 0 0 0 4.88-3.916l.262-1.18a6 6 0 0 0 2.601-11.708l.442-1.98A1.003 1.003 0 0 0 27.501 12h-26zm25 13a4.05 4.05 0 0 1-.632-.05l1.734-7.796A4.002 4.002 0 0 1 26.5 25zM5.78 27.65 2.746 14h23.508L23.22 27.65c-.148.666-.519 1.262-1.051 1.69s-1.194.66-1.877.66H8.708a2.998 2.998 0 0 1-2.928-2.35zM9.3 1.6l-.006.008-.028.038c-.146.2-.282.407-.408.62a4.003 4.003 0 0 0-.282.534c-.052.12-.068.184-.074.206v.008c.023.177.085.346.182.496.15.266.356.544.616.89l.02.024c.236.316.52.694.74 1.086.224.4.44.91.44 1.49 0 .376-.13.736-.238.988a6.142 6.142 0 0 1-.404.776 10.2 10.2 0 0 1-.506.764l-.036.05-.01.016-.004.004a1.004 1.004 0 0 1-1.4.202A1 1 0 0 1 7.7 8.4l.006-.008.028-.038c.146-.2.282-.407.408-.62.107-.171.202-.349.282-.534.052-.12.068-.184.074-.206a1.199 1.199 0 0 0-.18-.504A8.024 8.024 0 0 0 7.7 5.6l-.02-.024c-.27-.345-.517-.708-.74-1.086A3.066 3.066 0 0 1 6.5 3c0-.376.13-.736.238-.988.118-.276.268-.548.404-.776.159-.261.328-.516.506-.764l.05-.07A1.004 1.004 0 0 1 9.098.2 1.004 1.004 0 0 1 9.3 1.6zm6 0-.006.008-.028.038c-.146.2-.282.407-.408.62a4.003 4.003 0 0 0-.282.534c-.052.12-.068.184-.074.206v.008c.023.177.085.346.182.496.15.266.356.544.616.89l.02.024c.236.316.52.694.74 1.086.224.4.44.91.44 1.49 0 .376-.13.736-.238.988a6.142 6.142 0 0 1-.404.776 10.2 10.2 0 0 1-.506.764l-.036.05-.01.016-.004.004a1.004 1.004 0 0 1-1.4.202 1 1 0 0 1-.202-1.4l.006-.008.028-.038c.146-.2.282-.407.408-.62.107-.171.202-.349.282-.534.052-.12.068-.184.074-.206a1.199 1.199 0 0 0-.18-.504 8.024 8.024 0 0 0-.618-.89l-.02-.024c-.27-.345-.517-.708-.74-1.086A3.066 3.066 0 0 1 12.5 3c0-.376.13-.736.238-.988.118-.276.268-.548.404-.776.159-.261.328-.516.506-.764l.05-.07a1.004 1.004 0 0 1 1.4-.202 1 1 0 0 1 .202 1.4zm6 0-.006.008-.028.038c-.145.2-.282.407-.408.62a4.003 4.003 0 0 0-.282.534c-.052.12-.068.184-.074.206v.008c.023.177.085.346.182.496.15.266.356.544.616.89l.02.024c.236.316.52.694.74 1.086.224.4.44.91.44 1.49 0 .376-.13.736-.238.988a6.142 6.142 0 0 1-.404.776 9.875 9.875 0 0 1-.504.764l-.038.05-.01.016-.004.004a1.004 1.004 0 0 1-1.4.202 1 1 0 0 1-.202-1.4l.006-.008.028-.038c.145-.2.282-.407.408-.62.107-.171.202-.349.282-.534.052-.12.068-.184.074-.206a1.199 1.199 0 0 0-.18-.504 8.024 8.024 0 0 0-.618-.89l-.02-.024c-.27-.345-.517-.708-.74-1.086A3.066 3.066 0 0 1 18.5 3c0-.376.13-.736.238-.988.118-.276.268-.548.404-.776.159-.261.328-.516.506-.764l.05-.07a1.004 1.004 0 0 1 1.4-.202 1 1 0 0 1 .202 1.4z" />
    </symbol>
    <symbol id="icon-automatic" viewBox="0 0 43 32">
      <path
        d="M16 4a4.003 4.003 0 0 1 4-4h2.667a4.003 4.003 0 0 1 4 4v2.667a4.003 4.003 0 0 1-4 4v2.667h14.667a1.334 1.334 0 0 1 1.334 1.334v2.667a1.334 1.334 0 0 1-2.668 0v-1.333H22.667v1.333a1.334 1.334 0 0 1-2.668 0v-1.333H6.666v1.333a1.335 1.335 0 0 1-2.277.943 1.334 1.334 0 0 1-.391-.943v-2.667a1.335 1.335 0 0 1 1.334-1.334h14.667v-2.667a4.003 4.003 0 0 1-4-4V4zm6.667 4a1.335 1.335 0 0 0 1.334-1.334V3.999a1.334 1.334 0 0 0-1.334-1.334H20a1.335 1.335 0 0 0-1.334 1.334v2.667A1.334 1.334 0 0 0 20 8h2.667zM0 25.333a4.003 4.003 0 0 1 4-4h2.667a4.003 4.003 0 0 1 4 4V28a4.003 4.003 0 0 1-4 4H4a4.003 4.003 0 0 1-4-4v-2.667zM4 24a1.334 1.334 0 0 0-1.334 1.334v2.667A1.335 1.335 0 0 0 4 29.335h2.667a1.334 1.334 0 0 0 1.334-1.334v-2.667A1.335 1.335 0 0 0 6.667 24H4zm12 1.333a4.003 4.003 0 0 1 4-4h2.667a4.003 4.003 0 0 1 4 4V28a4.003 4.003 0 0 1-4 4H20a4.003 4.003 0 0 1-4-4v-2.667zM20 24a1.334 1.334 0 0 0-1.334 1.334v2.667A1.334 1.334 0 0 0 20 29.335h2.667a1.334 1.334 0 0 0 1.334-1.334v-2.667A1.334 1.334 0 0 0 22.667 24H20zm12 1.333a4.003 4.003 0 0 1 4-4h2.667a4.003 4.003 0 0 1 4 4V28a4.003 4.003 0 0 1-4 4H36a4.003 4.003 0 0 1-4-4v-2.667zM36 24a1.334 1.334 0 0 0-1.334 1.334v2.667A1.334 1.334 0 0 0 36 29.335h2.667a1.334 1.334 0 0 0 1.334-1.334v-2.667A1.334 1.334 0 0 0 38.667 24H36z" />
    </symbol>
    <symbol id="icon-AC" viewBox="0 0 37 32">
      <path
        d="M28.571 2.286a5.714 5.714 0 0 0-5.715 5.715 1.14 1.14 0 0 1-1.143 1.143 1.14 1.14 0 0 1-1.143-1.143A8.003 8.003 0 0 1 25.508.61a8.007 8.007 0 0 1 10.908 5.83A8 8 0 0 1 28.569 16H1.14a1.14 1.14 0 0 1-1.143-1.143 1.14 1.14 0 0 1 1.143-1.143h27.429a5.714 5.714 0 1 0 0-11.43zm-16 2.285a2.287 2.287 0 0 0-2.285 2.285 1.14 1.14 0 0 1-1.143 1.143A1.14 1.14 0 0 1 8 6.856a4.575 4.575 0 0 1 2.822-4.224c.835-.346 1.754-.437 2.641-.26s1.701.612 2.341 1.251 1.075 1.454 1.251 2.341a4.573 4.573 0 0 1-4.484 5.463H1.142a1.14 1.14 0 0 1-1.143-1.143 1.14 1.14 0 0 1 1.143-1.143h11.429a2.287 2.287 0 0 0 1.616-3.901 2.287 2.287 0 0 0-1.616-.669zM0 19.429a1.14 1.14 0 0 1 1.143-1.143h22.953a6.856 6.856 0 0 1 4.849 11.706 6.861 6.861 0 0 1-7.473 1.487 6.861 6.861 0 0 1-4.233-6.336A1.14 1.14 0 0 1 18.382 24a1.14 1.14 0 0 1 1.143 1.143 4.575 4.575 0 0 0 2.822 4.224c.835.346 1.754.437 2.641.26s1.701-.612 2.341-1.251 1.075-1.454 1.251-2.341a4.573 4.573 0 0 0-4.484-5.463H1.143A1.14 1.14 0 0 1 0 19.429z" />
    </symbol>
    <symbol id="icon-logo" viewBox="0 0 272 32">
      <path fill="#475467" style="fill:var(--color1, #475467)"
        d="M270.786 14.375h-7.216a1.98 1.98 0 0 0-.47-1.151 2.637 2.637 0 0 0-1.064-.739c-.428-.18-.9-.27-1.422-.27-.672 0-1.25.123-1.732.369-.484.246-.72.597-.71 1.051-.01.322.128.62.412.895.292.275.856.488 1.69.639l4.432.795c2.234.407 3.896 1.094 4.986 2.06 1.098.956 1.652 2.24 1.662 3.849-.01 1.553-.474 2.902-1.392 4.048-.91 1.136-2.156 2.017-3.736 2.642-1.572.615-3.368.923-5.384.923-3.334 0-5.942-.682-7.826-2.045-1.876-1.364-2.922-3.163-3.14-5.398h7.784a2.24 2.24 0 0 0 1.022 1.605c.588.369 1.326.554 2.216.554.72 0 1.312-.123 1.776-.369.474-.246.716-.597.724-1.051-.008-.417-.218-.748-.624-.994-.398-.246-1.024-.445-1.876-.597l-3.862-.682c-2.226-.388-3.892-1.127-5-2.216s-1.658-2.491-1.648-4.205c-.01-1.515.388-2.798 1.192-3.849.814-1.061 1.974-1.866 3.48-2.415 1.516-.559 3.31-.838 5.384-.838 3.154 0 5.64.653 7.458 1.96 1.828 1.307 2.788 3.116 2.884 5.426zM232.83 23.92l.056-9.318h1.024l5.284-7.33H248l-8.864 11.42h-2.216l-4.09 5.227zm-7.046 5.171V0h7.842v29.091h-7.842zm13.466 0-5-8.636 5.114-5.568 8.864 14.205h-8.978zM211.238 29.489c-2.368 0-4.394-.469-6.08-1.406-1.686-.947-2.978-2.263-3.878-3.949-.9-1.695-1.349-3.66-1.349-5.895s.449-4.195 1.349-5.881a9.562 9.562 0 0 1 3.878-3.949c1.686-.947 3.712-1.42 6.08-1.42 2.14 0 3.992.388 5.554 1.165 1.572.767 2.788 1.856 3.65 3.267.862 1.402 1.298 3.049 1.308 4.943h-7.274c-.104-1.146-.436-2.017-.994-2.614-.55-.606-1.26-.909-2.13-.909-.682 0-1.28.199-1.79.597-.512.388-.91.98-1.194 1.776-.284.786-.426 1.776-.426 2.969s.142 2.188.426 2.983c.284.786.682 1.378 1.194 1.776.51.388 1.108.582 1.79.582.578 0 1.088-.133 1.534-.398.444-.275.804-.672 1.08-1.193.284-.53.454-1.174.51-1.932h7.274c-.03 1.922-.47 3.598-1.322 5.028-.852 1.42-2.06 2.519-3.622 3.295-1.554.777-3.41 1.165-5.568 1.165zM188.097 19.545V7.272h7.841V29.09h-7.443v-4.148h-.227c-.473 1.392-1.302 2.481-2.486 3.267-1.184.777-2.59 1.165-4.219 1.165-1.525 0-2.86-.35-4.006-1.051-1.136-.701-2.022-1.667-2.656-2.898-.625-1.231-.942-2.642-.952-4.233V7.271h7.841v12.273c.009 1.08.284 1.927.824 2.543.549.616 1.316.923 2.301.923.653 0 1.217-.137 1.69-.412a2.814 2.814 0 0 0 1.108-1.193c.265-.521.393-1.141.383-1.861zM155.806 29.091V7.273h7.614v4.148h.227c.398-1.534 1.027-2.656 1.889-3.366.871-.71 1.889-1.065 3.054-1.065.341 0 .677.028 1.009.085.341.047.668.118.98.213v6.69c-.388-.133-.866-.232-1.435-.298s-1.056-.099-1.463-.099c-.767 0-1.458.175-2.074.526a3.71 3.71 0 0 0-1.435 1.449c-.35.616-.526 1.34-.526 2.173v11.364h-7.841zM128.902 6.364V0h25.284v6.364h-8.75v22.727h-7.784V6.364h-8.75z" />
      <path fill="#101828" style="fill:var(--color2, #101828)"
        d="M125.016 0v29.091h-7.841V0h7.841zM102.493 29.489c-2.33 0-4.337-.445-6.023-1.335a9.355 9.355 0 0 1-3.878-3.864c-.9-1.686-1.349-3.703-1.349-6.051 0-2.254.455-4.223 1.364-5.909s2.192-2.997 3.849-3.935 3.613-1.406 5.867-1.406c1.648 0 3.139.256 4.474.767s2.476 1.255 3.423 2.23c.947.966 1.676 2.14 2.188 3.523s.767 2.94.767 4.673V20H93.686v-4.318h12.273c-.01-.625-.171-1.174-.483-1.648a3.074 3.074 0 0 0-1.236-1.122c-.511-.275-1.094-.412-1.747-.412-.634 0-1.217.137-1.747.412-.53.265-.956.634-1.278 1.108-.312.473-.478 1.027-.497 1.662v4.659c0 .701.147 1.326.44 1.875s.715.98 1.264 1.293c.549.312 1.212.469 1.989.469.54 0 1.032-.076 1.477-.227a3.34 3.34 0 0 0 1.165-.653c.322-.294.559-.644.71-1.051h7.159c-.246 1.515-.829 2.832-1.747 3.949-.918 1.108-2.135 1.97-3.651 2.585-1.506.606-3.267.909-5.284.909zM89.673 7.273l-7.329 21.818h-9.091l-7.33-21.818h8.239l3.523 14.432h.227l3.523-14.432h8.239zM50.112 29.432c-1.392 0-2.623-.227-3.693-.682-1.061-.464-1.894-1.165-2.5-2.102s-.909-2.131-.909-3.58c0-1.193.204-2.211.611-3.054.407-.852.975-1.548 1.705-2.088s1.577-.952 2.543-1.236a15.398 15.398 0 0 1 3.153-.554c1.222-.095 2.202-.208 2.94-.341.748-.142 1.288-.336 1.619-.582.331-.256.497-.592.497-1.009v-.057c0-.568-.218-1.004-.653-1.307s-.994-.455-1.676-.455c-.748 0-1.359.166-1.832.497-.464.322-.743.819-.838 1.491h-7.216a7.44 7.44 0 0 1 1.264-3.665c.758-1.127 1.861-2.027 3.31-2.699 1.449-.682 3.257-1.023 5.426-1.023 1.563 0 2.964.185 4.205.554 1.241.36 2.296.866 3.168 1.52.871.644 1.534 1.402 1.989 2.273a5.84 5.84 0 0 1 .696 2.813v14.943h-7.329v-3.068h-.171c-.436.814-.966 1.472-1.591 1.974a5.866 5.866 0 0 1-2.117 1.094c-.786.227-1.652.341-2.599.341zm2.557-4.943c.597 0 1.155-.123 1.676-.369.53-.246.961-.601 1.293-1.065s.497-1.027.497-1.69v-1.818a8.731 8.731 0 0 1-.668.241 13.888 13.888 0 0 1-1.563.398c-.284.057-.582.109-.895.156-.606.095-1.103.251-1.492.469-.379.208-.663.469-.852.781-.18.303-.27.644-.27 1.023 0 .606.213 1.07.639 1.392s.971.483 1.633.483zM26.904 29.091V7.273h7.614v4.148h.227c.398-1.534 1.027-2.656 1.889-3.366.871-.71 1.889-1.065 3.054-1.065.341 0 .677.028 1.009.085.341.047.668.118.98.213v6.69c-.388-.133-.866-.232-1.435-.298s-1.056-.099-1.463-.099c-.767 0-1.458.175-2.074.526a3.71 3.71 0 0 0-1.435 1.449c-.35.616-.526 1.34-.526 2.173v11.364h-7.841zM0 6.364V0h25.284v6.364h-8.75v22.727H8.75V6.364H0z" />
    </symbol>
  </defs>
</svg>